<svg width="69" height="69" viewBox="0 0 69 69" fill="none" xmlns="http://www.w3.org/2000/svg">
<path d="M61.6871 8.46104L61.6882 8.46187C62.0937 8.75814 62.4244 9.14524 62.6527 9.59279C62.8809 10.0403 63 10.5351 63 11.0373V43.2239C63 43.224 63 43.2241 63 43.2241C63.0001 43.9106 62.7777 44.578 62.3671 45.1282C61.9566 45.6783 61.3801 46.0818 60.7235 46.2817C60.7234 46.2817 60.7234 46.2817 60.7233 46.2818L59.4219 46.6781C55.5245 47.8694 51.469 48.4767 47.3901 48.4799H47.3886C43.3097 48.4771 39.254 47.8698 35.3566 46.6781L35.3549 46.6776C34.57 46.436 33.758 46.2214 32.9506 46.0375L32.9504 46.0374L30.3459 45.4433C25.2546 44.2906 19.9658 44.2906 14.8746 45.4433C14.8745 45.4433 14.8744 45.4433 14.8743 45.4433L13.4416 45.7707V60.8023C13.4416 61.6538 13.0997 62.4683 12.4945 63.0671L11.8036 62.3689L12.4945 63.0671C11.8897 63.6656 11.0717 64 10.2208 64C9.36995 64 8.55187 63.6656 7.94707 63.0671L7.94706 63.0671C7.34191 62.4683 7 61.6538 7 60.8023V11.0373C7 10.9253 7.00707 10.8225 7.0157 10.7327L7.01999 10.7331V10.6943M61.6871 8.46104L7.27194 9.75059C7.2484 9.80386 7.23267 9.84461 7.22341 9.86859C7.22218 9.8718 7.22106 9.8747 7.22005 9.8773C7.21946 9.8788 7.21873 9.88068 7.21786 9.88289C7.20815 9.90774 7.18189 9.9749 7.16079 10.0417C7.15975 10.045 7.15809 10.0502 7.156 10.0567C7.14903 10.0784 7.13736 10.1148 7.12863 10.1439C7.11153 10.201 7.09495 10.268 7.08646 10.3027C7.07352 10.3555 7.06567 10.3922 7.05723 10.4356C7.04423 10.5025 7.0326 10.5933 7.02787 10.6307L7.01999 10.6931V10.6943M61.6871 8.46104C61.2812 8.16531 60.8116 7.96851 60.3161 7.88574C59.8207 7.80298 59.3125 7.8364 58.8323 7.98347L57.5305 8.38102L57.5301 8.38115M61.6871 8.46104L57.5301 8.38115M7.01999 10.6943C7.02018 10.6928 7.02036 10.6914 7.02055 10.6899C7.02226 10.6768 7.02393 10.6656 7.02523 10.6572L7.02824 10.6385L7.02894 10.6343C7.02908 10.6334 7.0291 10.6333 7.02906 10.6335L7.02771 10.6425C7.02697 10.6477 7.0259 10.6557 7.02481 10.6657C7.0231 10.6813 7.02105 10.7045 7.02029 10.7332L7.25756 10.756L8.0111 10.8285M7.01999 10.6943C7.01843 10.7066 7.01677 10.721 7.0153 10.737L7.01999 10.7375V10.756C7.01999 10.7496 7.02006 10.7434 7.02019 10.7375L7.22165 10.756L8.0111 10.8285M8.0111 10.8285C8.01199 10.8189 8.01359 10.8092 8.01519 10.7995C8.01759 10.785 8.01999 10.7705 8.01999 10.756L12.4416 60.8023C12.4416 61.3852 12.2076 61.9442 11.7912 62.3563C11.3747 62.7685 10.8098 63 10.2208 63C9.63181 63 9.06694 62.7685 8.65046 62.3563C8.23398 61.9442 8 61.3852 8 60.8023V11.0373C8 10.967 8.00444 10.8978 8.0111 10.8285ZM57.5301 8.38115C50.9238 10.4018 43.8547 10.4018 37.2484 8.38115L37.2477 8.38093M57.5301 8.38115L37.2477 8.38093M37.2477 8.38093C36.3096 8.09477 35.3483 7.83924 34.3927 7.62084L34.3919 7.62066M37.2477 8.38093L34.3919 7.62066M34.3919 7.62066L31.7858 7.0273L31.7849 7.02709M34.3919 7.62066L31.7849 7.02709M31.7849 7.02709C25.749 5.65878 19.4788 5.65762 13.4423 7.02371L13.4423 7.02371M31.7849 7.02709L13.4423 7.02371M13.4423 7.02371L13.4412 7.02396M13.4423 7.02371L13.4412 7.02396M13.4412 7.02396L9.50038 7.92061L9.48204 7.92478M13.4412 7.02396L9.48204 7.92478M9.48204 7.92478L9.46386 7.92964M9.48204 7.92478L9.46386 7.92964M9.46386 7.92964L9.38169 7.95162L9.38169 7.95161M9.46386 7.92964L9.38169 7.95161M9.38169 7.95161L9.37671 7.95296M9.38169 7.95161L9.37671 7.95296M9.37671 7.95296L9.28011 7.97934L9.25496 7.9862M9.37671 7.95296L9.25496 7.9862M9.25496 7.9862L9.2302 7.99437M9.25496 7.9862L9.2302 7.99437M9.2302 7.99437C9.16244 8.01672 9.10118 8.03981 9.04565 8.06209C9.04515 8.06229 9.04407 8.06271 9.04246 8.06333C9.02385 8.07051 8.9341 8.10517 8.84848 8.14978L8.83701 8.15496L8.8364 8.15523C8.82581 8.16001 8.80768 8.16818 8.78832 8.17731C8.76838 8.18671 8.74118 8.19991 8.7109 8.2161L8.69665 8.22373M9.2302 7.99437L8.69665 8.22373M8.69665 8.22373L8.68264 8.23181M8.69665 8.22373L8.68264 8.23181M8.68264 8.23181L8.61847 8.26885L8.61721 8.26957C8.58253 8.28933 8.53445 8.31672 8.4834 8.34792L8.46197 8.36102M8.68264 8.23181L8.46197 8.36102M8.46197 8.36102L8.44122 8.37518M8.46197 8.36102L8.44122 8.37518M8.44122 8.37518L8.37681 8.41913L8.37676 8.41906M8.44122 8.37518L8.37676 8.41906M8.37676 8.41906L8.3658 8.42676M8.37676 8.41906L8.3658 8.42676M8.3658 8.42676C8.32453 8.45574 8.27543 8.4911 8.22262 8.53274L8.16347 8.57873L8.14554 8.59267M8.3658 8.42676L8.14554 8.59267M8.14554 8.59267L8.12827 8.60741M8.14554 8.59267L8.12827 8.60741M8.12827 8.60741C8.08788 8.64186 8.04194 8.68221 7.99415 8.72776L7.99414 8.72776M8.12827 8.60741L7.99414 8.72776M7.99414 8.72776C7.95848 8.76174 7.93871 8.78092 7.90499 8.81637C7.90411 8.8173 7.90284 8.81864 7.90122 8.82033C7.88447 8.83787 7.83076 8.89412 7.78897 8.94208L7.78897 8.94208M7.99414 8.72776L7.78897 8.94208M7.78897 8.94208C7.78416 8.9476 7.78274 8.94917 7.77886 8.95347C7.77687 8.95568 7.77423 8.95859 7.77017 8.96311C7.76393 8.97007 7.75321 8.98207 7.74059 8.99703C7.7322 9.00697 7.72426 9.01668 7.71665 9.02625C7.66945 9.0838 7.62949 9.13858 7.59886 9.18187L7.57586 9.21249L7.56178 9.23122M7.78897 8.94208L7.56178 9.23122M7.56178 9.23122L7.54861 9.25058M7.56178 9.23122L7.54861 9.25058M7.54861 9.25058C7.49062 9.33578 7.4425 9.41762 7.40828 9.47687L7.4033 9.48549M7.54861 9.25058L7.4033 9.48549M7.4033 9.48549L7.39849 9.49421M7.4033 9.48549L7.39849 9.49421M7.39849 9.49421C7.37835 9.53076 7.36275 9.5629 7.355 9.57896M7.39849 9.49421L7.355 9.57896M7.355 9.57896L7.34954 9.5903M7.355 9.57896L7.34954 9.5903M7.34954 9.5903L7.34605 9.59756M7.34954 9.5903L7.34605 9.59756M7.34605 9.59756C7.34536 9.59899 7.34493 9.59988 7.3447 9.60034M7.34605 9.59756L7.3447 9.60034M7.3447 9.60034C7.34436 9.60102 7.34387 9.60198 7.34325 9.60318C7.33432 9.62061 7.29837 9.69081 7.27195 9.75059L7.3447 9.60034Z" fill="#46CD5C" stroke="white" stroke-width="2"/>
<path d="M36.7325 33.3671L36.7325 33.367L45.9176 24.2777L45.9199 24.2776L46.0622 24.1368C46.2635 23.9375 46.4236 23.7007 46.5329 23.4396C46.6421 23.1785 46.6985 22.8985 46.6985 22.6156C46.6985 22.3327 46.6421 22.0526 46.5329 21.7916C46.4236 21.5305 46.2635 21.2936 46.0622 21.0943C45.8608 20.895 45.622 20.7372 45.3596 20.6297C45.0971 20.5221 44.8161 20.4668 44.5323 20.4668C44.2486 20.4668 43.9675 20.5221 43.7051 20.6297C43.4427 20.7372 43.2039 20.895 43.0025 21.0943L43.0025 21.0943L35.2049 28.8117L31.3244 24.9727C31.125 24.7694 30.8872 24.6073 30.6248 24.4958C30.361 24.3836 30.0774 24.3247 29.7906 24.3222C29.5038 24.3197 29.2192 24.3738 28.9535 24.4814L29.1411 24.9449L28.9535 24.4814C28.6877 24.589 28.4459 24.748 28.2424 24.9495C28.0388 25.1509 27.8775 25.3908 27.7682 25.6552C27.6589 25.9196 27.6038 26.2031 27.6063 26.4891C27.6088 26.7751 27.6688 27.0576 27.7828 27.32C27.8961 27.5811 28.0604 27.8169 28.2659 28.0142L33.6739 33.367L33.674 33.3671C34.0805 33.7692 34.6307 33.9942 35.2032 33.9942C35.7758 33.9942 36.326 33.7692 36.7325 33.3671Z" fill="white" stroke="white"/>
</svg>
