<svg width="69" height="69" viewBox="0 0 69 69" fill="none" xmlns="http://www.w3.org/2000/svg">
<mask id="path-1-outside-1_478_3710" maskUnits="userSpaceOnUse" x="2" y="0" width="66" height="68" fill="black">
<rect fill="white" x="2" width="66" height="68"/>
<path fill-rule="evenodd" clip-rule="evenodd" d="M13.5999 39.3887V60.568H6.26713C5.97123 60.5673 5.67818 60.626 5.40467 60.7409C5.13117 60.8557 4.88266 61.0244 4.67343 61.2372C4.46419 61.45 4.29835 61.7027 4.18543 61.9809C4.07251 62.259 4.01473 62.5571 4.01541 62.8581C4.01541 64.1223 5.02577 65.1482 6.26719 65.1482H63.7417C64.9832 65.1482 65.9935 64.1206 65.9935 62.8581C65.9935 61.5956 64.9832 60.568 63.7417 60.568H45.3333V60.5679H56.402V39.3887C56.402 27.3718 46.8244 17.6222 35.0018 17.6222C23.1776 17.6222 13.5999 27.37 13.5999 39.3887ZM23.5185 60.5679H18.0983L18.0965 60.568H23.5185V60.5679ZM53.7051 8.25537C53.563 7.71395 53.2161 7.2517 52.74 6.96952L52.7279 6.96945C52.4926 6.83237 52.2331 6.74377 51.9642 6.7087C51.6953 6.67364 51.4223 6.69281 51.1606 6.76511C50.899 6.83741 50.654 6.96143 50.4395 7.13008C50.225 7.29873 50.0453 7.50871 49.9106 7.74802L46.1176 14.4589L49.7038 16.5701L53.4986 9.85937C53.773 9.37342 53.8473 8.7968 53.7051 8.25537ZM37.2397 4.13054C37.2397 2.9504 36.2363 2 34.9949 2C33.7535 2 32.7501 2.9504 32.75 4.12522V11.7356H37.2397V4.13054ZM18.0273 6.70468C17.7576 6.74092 17.4975 6.83091 17.262 6.96952L17.2603 6.96945C16.7847 7.25028 16.4379 7.71128 16.2957 8.25157C16.1535 8.79186 16.2276 9.36744 16.5017 9.85233L20.3 16.5649L23.8862 14.4518L20.0914 7.74105C19.9556 7.50121 19.7747 7.29096 19.5589 7.12233C19.3432 6.95371 19.0969 6.83002 18.8341 6.75835C18.5712 6.68668 18.2971 6.66845 18.0273 6.70468ZM4.81065 19.6119C4.59509 19.7808 4.41449 19.9914 4.27925 20.2315H4.27738C4.00277 20.7165 3.92842 21.2925 4.07062 21.8332C4.21282 22.3738 4.55996 22.8352 5.03599 23.116L11.6121 27.0001L13.681 23.3387L7.10685 19.4599C6.87159 19.3209 6.61162 19.2306 6.34191 19.1941C6.07219 19.1577 5.79805 19.1758 5.53526 19.2475C5.27246 19.3192 5.0262 19.4431 4.81065 19.6119ZM65.9294 21.8355C66.0715 21.2941 65.9973 20.7174 65.7229 20.2315C65.7229 20.2277 65.7202 20.2266 65.7187 20.2237C65.7181 20.2226 65.7177 20.2211 65.7177 20.2192C65.4425 19.7379 64.9908 19.3872 64.4618 19.2439C63.9328 19.1006 63.3695 19.1764 62.8953 19.4547L56.3228 23.3317L58.3917 26.9948L64.9642 23.1213C65.4403 22.8391 65.7872 22.3769 65.9294 21.8355Z"/>
</mask>
<path fill-rule="evenodd" clip-rule="evenodd" d="M13.5999 39.3887V60.568H6.26713C5.97123 60.5673 5.67818 60.626 5.40467 60.7409C5.13117 60.8557 4.88266 61.0244 4.67343 61.2372C4.46419 61.45 4.29835 61.7027 4.18543 61.9809C4.07251 62.259 4.01473 62.5571 4.01541 62.8581C4.01541 64.1223 5.02577 65.1482 6.26719 65.1482H63.7417C64.9832 65.1482 65.9935 64.1206 65.9935 62.8581C65.9935 61.5956 64.9832 60.568 63.7417 60.568H45.3333V60.5679H56.402V39.3887C56.402 27.3718 46.8244 17.6222 35.0018 17.6222C23.1776 17.6222 13.5999 27.37 13.5999 39.3887ZM23.5185 60.5679H18.0983L18.0965 60.568H23.5185V60.5679ZM53.7051 8.25537C53.563 7.71395 53.2161 7.2517 52.74 6.96952L52.7279 6.96945C52.4926 6.83237 52.2331 6.74377 51.9642 6.7087C51.6953 6.67364 51.4223 6.69281 51.1606 6.76511C50.899 6.83741 50.654 6.96143 50.4395 7.13008C50.225 7.29873 50.0453 7.50871 49.9106 7.74802L46.1176 14.4589L49.7038 16.5701L53.4986 9.85937C53.773 9.37342 53.8473 8.7968 53.7051 8.25537ZM37.2397 4.13054C37.2397 2.9504 36.2363 2 34.9949 2C33.7535 2 32.7501 2.9504 32.75 4.12522V11.7356H37.2397V4.13054ZM18.0273 6.70468C17.7576 6.74092 17.4975 6.83091 17.262 6.96952L17.2603 6.96945C16.7847 7.25028 16.4379 7.71128 16.2957 8.25157C16.1535 8.79186 16.2276 9.36744 16.5017 9.85233L20.3 16.5649L23.8862 14.4518L20.0914 7.74105C19.9556 7.50121 19.7747 7.29096 19.5589 7.12233C19.3432 6.95371 19.0969 6.83002 18.8341 6.75835C18.5712 6.68668 18.2971 6.66845 18.0273 6.70468ZM4.81065 19.6119C4.59509 19.7808 4.41449 19.9914 4.27925 20.2315H4.27738C4.00277 20.7165 3.92842 21.2925 4.07062 21.8332C4.21282 22.3738 4.55996 22.8352 5.03599 23.116L11.6121 27.0001L13.681 23.3387L7.10685 19.4599C6.87159 19.3209 6.61162 19.2306 6.34191 19.1941C6.07219 19.1577 5.79805 19.1758 5.53526 19.2475C5.27246 19.3192 5.0262 19.4431 4.81065 19.6119ZM65.9294 21.8355C66.0715 21.2941 65.9973 20.7174 65.7229 20.2315C65.7229 20.2277 65.7202 20.2266 65.7187 20.2237C65.7181 20.2226 65.7177 20.2211 65.7177 20.2192C65.4425 19.7379 64.9908 19.3872 64.4618 19.2439C63.9328 19.1006 63.3695 19.1764 62.8953 19.4547L56.3228 23.3317L58.3917 26.9948L64.9642 23.1213C65.4403 22.8391 65.7872 22.3769 65.9294 21.8355Z" fill="#A5110E"/>
<path d="M13.5999 60.568V62.568H15.5999V60.568H13.5999ZM6.26713 60.568L6.26239 62.568H6.26713V60.568ZM4.67343 61.2372L3.24734 59.8349L3.24733 59.8349L4.67343 61.2372ZM4.18543 61.9809L6.03855 62.7331L6.03856 62.7331L4.18543 61.9809ZM4.01541 62.8581H6.01542L6.01541 62.8535L4.01541 62.8581ZM45.3333 60.568H43.3333V62.568H45.3333V60.568ZM45.3333 60.5679V58.5679H43.3333V60.5679H45.3333ZM56.402 60.5679V62.5679H58.402V60.5679H56.402ZM23.5185 60.5679H25.5185V58.5679H23.5185V60.5679ZM18.0983 60.5679V58.5679H18.0646L18.0308 58.5691L18.0983 60.5679ZM18.0965 60.568L18.029 58.5691L18.0965 62.568V60.568ZM23.5185 60.568V62.568H25.5185V60.568H23.5185ZM52.74 6.96952L53.7598 5.24906L53.2931 4.97238L52.7505 4.96954L52.74 6.96952ZM52.7279 6.96945L51.7209 8.69744L52.1828 8.96664L52.7174 8.96943L52.7279 6.96945ZM51.9642 6.7087L51.7057 8.69192L51.7057 8.69192L51.9642 6.7087ZM51.1606 6.76511L50.6279 4.83737L50.6279 4.83737L51.1606 6.76511ZM49.9106 7.74802L51.6517 8.73213L51.6536 8.72887L49.9106 7.74802ZM46.1176 14.4589L44.3764 13.4748L43.4095 15.1855L45.1029 16.1824L46.1176 14.4589ZM49.7038 16.5701L48.6891 18.2936L50.4429 19.3261L51.4447 17.5546L49.7038 16.5701ZM53.4986 9.85937L55.2395 10.8438L55.2402 10.8428L53.4986 9.85937ZM32.75 4.12522L30.75 4.12512V4.12522H32.75ZM32.75 11.7356H30.75V13.7356H32.75V11.7356ZM37.2397 11.7356V13.7356H39.2397V11.7356H37.2397ZM17.262 6.96952L17.1867 8.9681L17.7718 8.99016L18.2764 8.69316L17.262 6.96952ZM18.0273 6.70468L18.2936 8.68688H18.2936L18.0273 6.70468ZM17.2603 6.96945L17.3357 4.97087L16.749 4.94876L16.2434 5.24726L17.2603 6.96945ZM16.2957 8.25157L18.2298 8.76057L18.2298 8.76057L16.2957 8.25157ZM16.5017 9.85233L14.7606 10.8365L14.761 10.8373L16.5017 9.85233ZM20.3 16.5649L18.5593 17.5498L19.5617 19.3213L21.3153 18.288L20.3 16.5649ZM23.8862 14.4518L24.9015 16.175L26.5942 15.1776L25.6271 13.4674L23.8862 14.4518ZM20.0914 7.74105L21.8323 6.75658L21.8319 6.75596L20.0914 7.74105ZM19.5589 7.12233L18.3273 8.69812L18.3273 8.69812L19.5589 7.12233ZM18.8341 6.75835L19.3602 4.82881L19.3602 4.8288L18.8341 6.75835ZM4.27925 20.2315V22.2315H5.44816L6.02183 21.213L4.27925 20.2315ZM4.81065 19.6119L3.57727 18.0375H3.57727L4.81065 19.6119ZM4.27738 20.2315V18.2315H3.1114L2.53695 19.2461L4.27738 20.2315ZM4.07062 21.8332L2.13639 22.3418L2.13639 22.3418L4.07062 21.8332ZM5.03599 23.116L6.0531 21.3939L6.05224 21.3934L5.03599 23.116ZM11.6121 27.0001L10.595 28.7221L12.3504 29.7589L13.3533 27.984L11.6121 27.0001ZM13.681 23.3387L15.4223 24.3226L16.388 22.6136L14.6973 21.6162L13.681 23.3387ZM7.10685 19.4599L6.08938 21.1818L6.09055 21.1825L7.10685 19.4599ZM6.34191 19.1941L6.07403 21.1761L6.07405 21.1761L6.34191 19.1941ZM5.53526 19.2475L6.06172 21.177L6.06173 21.177L5.53526 19.2475ZM65.7229 20.2315H63.7229V20.7571L63.9813 21.2148L65.7229 20.2315ZM65.9294 21.8355L63.9949 21.3276V21.3276L65.9294 21.8355ZM65.7187 20.2237L63.9377 21.1336L63.9383 21.1348L65.7187 20.2237ZM65.7177 20.2192H67.7177V19.6876L67.4538 19.2262L65.7177 20.2192ZM62.8953 19.4547L61.883 17.7298L61.8791 17.7321L62.8953 19.4547ZM56.3228 23.3317L55.3066 21.6091L53.6161 22.6063L54.5814 24.3153L56.3228 23.3317ZM58.3917 26.9948L56.6503 27.9784L57.6521 29.7522L59.4072 28.7179L58.3917 26.9948ZM64.9642 23.1213L65.9797 24.8444L65.984 24.8418L64.9642 23.1213ZM15.5999 60.568V39.3887H11.5999V60.568H15.5999ZM6.26713 62.568H13.5999V58.568H6.26713V62.568ZM6.17894 62.5849C6.20651 62.5733 6.23473 62.5679 6.26239 62.568L6.27187 58.568C5.70774 58.5666 5.14984 58.6787 4.63041 58.8968L6.17894 62.5849ZM6.09951 62.6394C6.12406 62.6144 6.15135 62.5965 6.17894 62.5849L4.63041 58.8968C4.11098 59.1149 3.64127 59.4343 3.24734 59.8349L6.09951 62.6394ZM6.03856 62.7331C6.05363 62.696 6.07491 62.6644 6.09952 62.6394L3.24733 59.8349C2.85348 60.2355 2.54307 60.7094 2.33231 61.2286L6.03856 62.7331ZM6.01541 62.8535C6.01531 62.8114 6.02345 62.7703 6.03855 62.7331L2.33231 61.2286C2.12157 61.7477 2.01415 62.3029 2.01542 62.8626L6.01541 62.8535ZM6.26719 63.1482C6.16103 63.1482 6.01541 63.0487 6.01541 62.8581H2.01541C2.01541 65.196 3.89051 67.1481 6.26719 67.1481V63.1482ZM63.7417 63.1482H6.26719V67.1481H63.7417V63.1482ZM63.9935 62.8581C63.9935 63.048 63.8469 63.1482 63.7417 63.1482V67.1481C66.1194 67.1481 67.9935 65.1932 67.9935 62.8581H63.9935ZM63.7417 62.568C63.8469 62.568 63.9935 62.6682 63.9935 62.8581H67.9935C67.9935 60.5229 66.1194 58.568 63.7417 58.568V62.568ZM45.3333 62.568H63.7417V58.568H45.3333V62.568ZM43.3333 60.5679V60.568H47.3333V60.5679H43.3333ZM56.402 58.5679H45.3333V62.5679H56.402V58.5679ZM54.402 39.3887V60.5679H58.402V39.3887H54.402ZM35.0018 19.6222C45.6875 19.6222 54.402 28.4437 54.402 39.3887H58.402C58.402 26.2998 47.9613 15.6222 35.0018 15.6222V19.6222ZM15.5999 39.3887C15.5999 28.4421 24.3143 19.6222 35.0018 19.6222V15.6222C22.0409 15.6222 11.5999 26.2978 11.5999 39.3887H15.5999ZM23.5185 58.5679H18.0983V62.5679H23.5185V58.5679ZM18.0308 58.5691L18.029 58.5691L18.164 62.5668L18.1658 62.5668L18.0308 58.5691ZM18.0965 62.568H23.5185V58.568H18.0965V62.568ZM25.5185 60.568V60.5679H21.5185V60.568H25.5185ZM51.7202 8.68997C51.7379 8.70049 51.7604 8.72395 51.7707 8.76319L55.6396 7.74756C55.3656 6.70396 54.6942 5.8029 53.7598 5.24906L51.7202 8.68997ZM52.7174 8.96943L52.7296 8.96949L52.7505 4.96954L52.7383 4.96948L52.7174 8.96943ZM51.7057 8.69192C51.7095 8.69242 51.7147 8.69385 51.7209 8.69744L53.7349 5.24146C53.2706 4.97089 52.7568 4.79511 52.2228 4.72549L51.7057 8.69192ZM51.6934 8.69285C51.6978 8.69162 51.7018 8.69142 51.7057 8.69192L52.2228 4.72549C51.6888 4.65587 51.1467 4.694 50.6279 4.83737L51.6934 8.69285ZM51.6757 8.70227C51.6827 8.69675 51.6889 8.6941 51.6934 8.69285L50.6279 4.83737C50.1091 4.98073 49.6252 5.22612 49.2033 5.5579L51.6757 8.70227ZM51.6536 8.72887C51.6605 8.71647 51.6686 8.70785 51.6757 8.70227L49.2033 5.5579C48.7814 5.88962 48.43 6.30096 48.1676 6.76717L51.6536 8.72887ZM47.8587 15.443L51.6517 8.73213L48.1695 6.76391L44.3764 13.4748L47.8587 15.443ZM50.7184 14.8466L47.1322 12.7353L45.1029 16.1824L48.6891 18.2936L50.7184 14.8466ZM51.7577 8.87489L47.9628 15.5856L51.4447 17.5546L55.2395 10.8438L51.7577 8.87489ZM51.7707 8.76319C51.7812 8.80309 51.7748 8.84462 51.7571 8.87597L55.2402 10.8428C55.7713 9.90222 55.9134 8.79051 55.6396 7.74756L51.7707 8.76319ZM34.9949 4C35.0997 4 35.1693 4.03858 35.2065 4.07381C35.2414 4.10696 35.2397 4.12548 35.2397 4.13054H39.2397C39.2397 1.74749 37.2399 0 34.9949 0V4ZM34.75 4.12533C34.75 4.12532 34.7464 4.10808 34.7821 4.07433C34.8197 4.03872 34.8899 4 34.9949 4V0C32.7532 0 30.7502 1.74437 30.75 4.12512L34.75 4.12533ZM34.75 11.7356V4.12522H30.75V11.7356H34.75ZM37.2397 9.73565H32.75V13.7356H37.2397V9.73565ZM35.2397 4.13054V11.7356H39.2397V4.13054H35.2397ZM18.2764 8.69316C18.2832 8.68917 18.2891 8.68749 18.2936 8.68688L17.7611 4.72248C17.2261 4.79434 16.7118 4.97266 16.2476 5.24587L18.2764 8.69316ZM17.185 8.96803L17.1867 8.9681L17.3373 4.97094L17.3357 4.97087L17.185 8.96803ZM18.2298 8.76057C18.2397 8.7231 18.261 8.70119 18.2772 8.69164L16.2434 5.24726C15.3084 5.79936 14.6361 6.69946 14.3615 7.74257L18.2298 8.76057ZM18.2428 8.86817C18.2259 8.83839 18.2198 8.79871 18.2298 8.76057L14.3616 7.74257C14.0872 8.78502 14.2292 9.89649 14.7606 10.8365L18.2428 8.86817ZM22.0406 15.5799L18.2423 8.86738L14.761 10.8373L18.5593 17.5498L22.0406 15.5799ZM22.8709 12.7287L19.2847 14.8418L21.3153 18.288L24.9015 16.175L22.8709 12.7287ZM18.3504 8.72552L22.1453 15.4363L25.6271 13.4674L21.8323 6.75658L18.3504 8.72552ZM18.3273 8.69812C18.335 8.70408 18.3434 8.71318 18.3508 8.72614L21.8319 6.75596C21.5678 6.28924 21.2144 5.87784 20.7906 5.54655L18.3273 8.69812ZM18.3079 8.6879C18.313 8.6893 18.3198 8.69222 18.3273 8.69812L20.7906 5.54655C20.3666 5.21519 19.8807 4.97074 19.3602 4.82881L18.3079 8.6879ZM18.2936 8.68688C18.2981 8.68627 18.3028 8.68651 18.3079 8.6879L19.3602 4.8288C18.8397 4.68686 18.2961 4.65062 17.7611 4.72248L18.2936 8.68688ZM6.02183 21.213C6.02883 21.2006 6.0369 21.1919 6.04402 21.1864L3.57727 18.0375C3.15328 18.3697 2.80016 18.7821 2.53667 19.2499L6.02183 21.213ZM4.27738 22.2315H4.27925V18.2315H4.27738V22.2315ZM6.00485 21.3245C5.99481 21.2863 6.00095 21.2466 6.0178 21.2168L2.53695 19.2461C2.0046 20.1864 1.86204 21.2986 2.13639 22.3418L6.00485 21.3245ZM6.05224 21.3934C6.03606 21.3839 6.01471 21.362 6.00485 21.3245L2.13639 22.3418C2.41092 23.3857 3.08386 24.2864 4.01973 24.8386L6.05224 21.3934ZM12.6292 25.278L6.0531 21.3939L4.01887 24.8381L10.595 28.7221L12.6292 25.278ZM11.9398 22.3548L9.87086 26.0162L13.3533 27.984L15.4223 24.3226L11.9398 22.3548ZM6.09055 21.1825L12.6647 25.0612L14.6973 21.6162L8.12315 17.7374L6.09055 21.1825ZM6.07405 21.1761C6.07794 21.1766 6.08317 21.1781 6.08938 21.1818L8.12432 17.7381C7.66002 17.4637 7.1453 17.2845 6.60977 17.2121L6.07405 21.1761ZM6.06173 21.177C6.06616 21.1758 6.07017 21.1756 6.07403 21.1761L6.60978 17.2121C6.07421 17.1398 5.52994 17.1759 5.00878 17.3181L6.06173 21.177ZM6.04402 21.1864C6.05106 21.1808 6.05723 21.1782 6.06172 21.177L5.00879 17.3181C4.48769 17.4602 4.00134 17.7053 3.57727 18.0375L6.04402 21.1864ZM63.9813 21.2148C63.9991 21.2462 64.0054 21.2877 63.9949 21.3276L67.8638 22.3433C68.1376 21.3004 67.9955 20.1887 67.4644 19.2481L63.9813 21.2148ZM63.9383 21.1348C64.0273 21.3087 64.1223 21.4307 64.1666 21.4853C64.1847 21.5077 64.2042 21.5304 64.1958 21.5205C64.1948 21.5194 64.1708 21.4913 64.1424 21.4548C64.0817 21.3767 63.9639 21.2144 63.8693 20.9813C63.7696 20.7357 63.7229 20.4803 63.7229 20.2315H67.7229C67.7229 19.9807 67.6758 19.7238 67.5756 19.4769C67.4804 19.2424 67.3619 19.0789 67.3003 18.9997C67.2715 18.9627 67.247 18.934 67.2456 18.9324C67.2368 18.9219 67.2557 18.9441 67.2734 18.9659C67.3168 19.0194 67.4109 19.1401 67.4991 19.3126L63.9383 21.1348ZM63.7177 20.2192C63.7177 20.5206 63.7857 20.8361 63.9377 21.1336L67.4997 19.3137C67.6506 19.609 67.7177 19.9217 67.7177 20.2192H63.7177ZM63.9389 21.1743C63.9484 21.1769 63.9667 21.1861 63.9816 21.2121L67.4538 19.2262C66.9182 18.2897 66.0332 17.5975 64.9847 17.3134L63.9389 21.1743ZM63.9076 21.1796C63.9144 21.1756 63.9201 21.1739 63.9247 21.1733C63.9292 21.1727 63.9338 21.1729 63.9389 21.1743L64.9847 17.3134C63.9353 17.0292 62.8189 17.1805 61.883 17.7298L63.9076 21.1796ZM57.339 25.0544L63.9115 21.1773L61.8791 17.7321L55.3066 21.6091L57.339 25.0544ZM60.1332 26.0113L58.0642 22.3482L54.5814 24.3153L56.6503 27.9784L60.1332 26.0113ZM63.9488 21.3983L57.3763 25.2718L59.4072 28.7179L65.9797 24.8443L63.9488 21.3983ZM63.9949 21.3276C63.9846 21.3668 63.9622 21.3903 63.9444 21.4008L65.984 24.8418C66.9184 24.288 67.5899 23.3869 67.8638 22.3433L63.9949 21.3276Z" fill="white" mask="url(#path-1-outside-1_478_3710)"/>
<path d="M46 31L37.4513 56H32.5487L24 31H28.351L35.0919 52.6912L41.8941 31H46Z" fill="white"/>
</svg>
