<svg width="69" height="69" viewBox="0 0 69 69" fill="none" xmlns="http://www.w3.org/2000/svg">
<path d="M45.0671 36.5185H39.0671L39.0672 26.5574L39.0671 26.5491L39.0669 26.5183L39.0668 26.5108C39.06 26.0813 38.9597 25.658 38.7725 25.2714C38.5852 24.8846 38.3153 24.5435 37.9811 24.2732L29.3328 17.278V15.8518H37.9213C39.294 15.8518 40.3796 14.7255 40.3796 13.37V8.48184C40.3796 7.12626 39.294 6 37.9213 6L26.9843 6C26.9842 6 26.9842 6 26.9841 6C26.984 6 26.9839 6 26.9838 6C26.8962 5.99998 26.8086 6.00466 26.7216 6.01403C26.6278 6.00474 26.5328 6 26.4369 6C24.8228 6 23.5411 7.32484 23.5411 8.92593L23.541 17.3067L14.8337 24.2621L14.8336 24.2621L14.8268 24.2676L14.8029 24.287L14.8029 24.287L14.7973 24.2916C14.4636 24.5672 14.1957 24.9138 14.0122 25.3056C13.8287 25.6973 13.7338 26.1249 13.7338 26.5574L13.7337 36.5185L6.85881 36.5185C3.95584 36.5185 1.62964 38.9053 1.62964 41.8159V56.6286C1.62964 59.5391 3.95583 61.9259 6.85881 61.9259H20.711H21.711V60.9259V50.6877C21.711 48.0325 23.8251 45.9075 26.3995 45.9075C28.9738 45.9075 31.088 48.0325 31.088 50.6877V60.9259V61.9259H32.088H45.0671C47.9701 61.9259 50.2963 59.5391 50.2963 56.6286V41.8158C50.2963 38.9053 47.9701 36.5185 45.0671 36.5185ZM22.4421 31C22.4421 28.7555 24.2291 26.963 26.4005 26.963C28.5718 26.963 30.3588 28.7555 30.3588 31C30.3588 33.2445 28.5718 35.037 26.4005 35.037C24.2291 35.037 22.4421 33.2445 22.4421 31Z" fill="#6170FA" stroke="white" stroke-width="2"/>
<circle cx="50.5" cy="44.5" r="17.5" fill="#6170FA" stroke="white" stroke-width="2"/>
<path d="M39.44 33.616H60.512V36.064H39.44V33.616ZM48.344 31.576H51.32V34.84H48.344V31.576ZM40.4 43.312H57.944V45.688H43.208V54.184H40.4V43.312ZM56.864 43.312H59.768V51.136C59.768 52.456 59.504 53.224 58.568 53.656C57.656 54.088 56.384 54.136 54.656 54.136C54.56 53.32 54.152 52.168 53.768 51.424C54.848 51.472 56.072 51.472 56.408 51.448C56.768 51.448 56.864 51.352 56.864 51.064V43.312ZM45.368 46.792H47.864V53.272H45.368V46.792ZM46.616 46.792H54.584V52.168H46.616V50.248H52.04V48.712H46.616V46.792ZM46.112 38.92V40.36H53.672V38.92H46.112ZM43.376 37H56.576V42.304H43.376V37Z" fill="white"/>
</svg>
