<svg width="69" height="69" viewBox="0 0 69 69" fill="none" xmlns="http://www.w3.org/2000/svg">
<rect x="26.0586" y="14.0884" width="8.64706" height="31.7059" fill="white"/>
<path d="M27.4239 5.46728L27.4239 5.46725C29.4117 2.1776 34.2302 2.17758 36.218 5.4672L27.4239 5.46728ZM27.4239 5.46728L2.73226 46.3328C2.73223 46.3328 2.73219 46.3329 2.73216 46.3329C0.678316 49.7309 3.17522 54 7.12923 54H56.5178C60.4719 54 62.9688 49.7309 60.9149 46.3328C60.9148 46.3328 60.9148 46.3328 60.9148 46.3328L36.218 5.46725L27.4239 5.46728ZM32.8824 43.8333H30.7647V41.7499H32.8824V43.8333ZM32.8824 35.6665H30.7647V17.2496H32.8824V35.6665Z" fill="#CA4A13" stroke="white" stroke-width="2"/>
<circle cx="50.5" cy="49.5" r="17.5" fill="#CA4A13" stroke="white" stroke-width="2"/>
<path d="M40.44 39.616H61.512V42.064H40.44V39.616ZM49.344 37.576H52.32V40.84H49.344V37.576ZM41.4 49.312H58.944V51.688H44.208V60.184H41.4V49.312ZM57.864 49.312H60.768V57.136C60.768 58.456 60.504 59.224 59.568 59.656C58.656 60.088 57.384 60.136 55.656 60.136C55.56 59.32 55.152 58.168 54.768 57.424C55.848 57.472 57.072 57.472 57.408 57.448C57.768 57.448 57.864 57.352 57.864 57.064V49.312ZM46.368 52.792H48.864V59.272H46.368V52.792ZM47.616 52.792H55.584V58.168H47.616V56.248H53.04V54.712H47.616V52.792ZM47.112 44.92V46.36H54.672V44.92H47.112ZM44.376 43H57.576V48.304H44.376V43Z" fill="white"/>
</svg>
