<svg width="69" height="69" viewBox="0 0 69 69" fill="none" xmlns="http://www.w3.org/2000/svg">
<path d="M35.0733 17.9096H17.9276V16.5919C17.9276 16.4331 18.0112 16.2139 18.2878 16.0018C18.564 15.79 18.9857 15.6315 19.4859 15.6315H33.5141C34.0153 15.6315 34.437 15.7898 34.7127 16.0011C34.9884 16.2124 35.0724 16.4314 35.0724 16.5919V16.5926L35.0733 17.9096ZM42.0699 17.9096H40.4296V14.9406C40.4296 13.7535 39.7942 12.7472 38.9109 12.0702C38.0275 11.3931 36.8504 11 35.5926 11H17.4074C16.1496 11 14.9724 11.3931 14.0889 12.0701C13.2055 12.7471 12.5699 13.7533 12.5699 14.9406V17.9096H10.9295C6.55864 17.9096 3 21.5083 3 25.8946V52.0145C3 56.4013 6.55859 60 10.9295 60H42.0699C46.4414 60 50 56.4014 50 52.0145V25.8946C50 21.5082 46.4413 17.9096 42.0699 17.9096Z" fill="#F0AE4A" stroke="white" stroke-width="2"/>
<path d="M35.35 43.0546C35.7828 42.6184 36.0268 42.0271 36.0285 41.4101V38.0923C36.0262 37.476 35.7822 36.8856 35.3498 36.4499C34.9174 36.0141 34.3316 35.7683 33.7202 35.7661H30.4563V32.4755C30.4545 31.8586 30.2106 31.2674 29.7779 30.8312C29.3452 30.3949 28.7588 30.1489 28.1468 30.147H24.8576C24.2455 30.1488 23.659 30.3947 23.2261 30.831C22.7933 31.2672 22.5494 31.8585 22.5476 32.4755V35.7638H19.2837C18.6715 35.7656 18.085 36.0115 17.6522 36.4478C17.2194 36.8841 16.9754 37.4753 16.9736 38.0923V41.4101C16.9754 42.0267 17.219 42.6176 17.6514 43.0538C18.0837 43.4901 18.6697 43.7362 19.2814 43.7386H22.5453V47.0287C22.5471 47.6457 22.7911 48.2369 23.2239 48.6732C23.6567 49.1095 24.2432 49.3554 24.8554 49.3572H28.1462C28.7584 49.3554 29.3449 49.1095 29.7777 48.6732C30.2105 48.2369 30.4545 47.6457 30.4563 47.0287V43.7386H33.7185C34.3306 43.7368 34.9172 43.4909 35.35 43.0546Z" fill="white"/>
<circle cx="50.5" cy="43.5" r="17.5" fill="#F0AE4A" stroke="white" stroke-width="2"/>
<path d="M48.168 37.36H59.88V39.76H48.168V37.36ZM44.928 41.536H60.936V44.008H44.928V41.536ZM51.408 38.248H54.264V42.232C54.264 45.16 52.8 48.16 46.488 49.936C46.128 49.36 45.312 48.352 44.688 47.824C50.568 46.48 51.408 44.152 51.408 42.184V38.248ZM47.952 35.368L50.64 36.04C49.824 38.08 48.408 40.048 47.016 41.296C46.464 40.864 45.288 40.192 44.616 39.88C46.056 38.8 47.304 37.096 47.952 35.368ZM54.072 43.144C55.224 45.496 57.696 46.96 61.344 47.488C60.744 48.04 60 49.12 59.64 49.864C55.56 49.024 53.088 47.008 51.648 43.648L54.072 43.144ZM40.92 32.728H61.464V35.488H43.8V54.184H40.92V32.728ZM42.696 50.44H62.064V53.2H42.696V50.44Z" fill="white"/>
</svg>
