<svg width="69" height="69" viewBox="0 0 69 69" fill="none" xmlns="http://www.w3.org/2000/svg">
<mask id="path-1-outside-1_478_3610" maskUnits="userSpaceOnUse" x="3" y="4" width="63" height="61" fill="black">
<rect fill="white" x="3" y="4" width="63" height="61"/>
<path fill-rule="evenodd" clip-rule="evenodd" d="M17.3227 23.7728V24.7024C17.3227 24.7084 17.3231 24.7143 17.3235 24.7202C17.3238 24.7248 17.3241 24.7293 17.3243 24.7339H12.9603V15.8858C12.9603 10.4348 17.3268 6 22.6939 6H46.3058C51.673 6 56.0396 10.4348 56.0396 15.8858V24.7339H51.6756C51.6758 24.7267 51.6765 24.7196 51.6769 24.7123C51.677 24.709 51.6772 24.7056 51.6772 24.7022V23.7727C51.6772 19.4066 48.1799 15.8545 43.8811 15.8545H25.1192C20.8201 15.8545 17.3227 19.4067 17.3227 23.7728ZM9.07423 27.5574H59.9256C62.1722 27.5574 64 29.4137 64 31.6953V52.406C64 54.6876 62.1723 56.5439 59.9256 56.5439H58.0669L59.6624 61.1164C59.9188 61.8512 59.5401 62.6582 58.8165 62.9185C58.6674 62.9724 58.5105 62.9999 58.3523 63C57.7801 63 57.2442 62.6385 57.0421 62.0594L55.1178 56.5439H13.8827L11.9584 62.0594C11.7565 62.6384 11.2205 63 10.6484 63C10.4944 63 10.3377 62.9738 10.1842 62.9185C9.46069 62.6582 9.08184 61.8514 9.33829 61.1164L10.9335 56.5441H9.07423C6.8277 56.5441 5 54.6878 5 52.4061V31.6953C5 29.4137 6.82757 27.5574 9.07423 27.5574ZM25.0534 19H43.947C46.7326 19 48.9986 21.2644 48.9983 24.0477V24.9686C48.9983 24.9755 48.9989 24.9822 48.9994 24.9889C48.9997 24.9926 48.9999 24.9963 49 25H20C20.0001 24.9954 20.0004 24.9908 20.0008 24.9862C20.0012 24.9804 20.0016 24.9746 20.0016 24.9687V24.0478C20.0016 21.2644 22.2678 19 25.0534 19Z"/>
</mask>
<path fill-rule="evenodd" clip-rule="evenodd" d="M17.3227 23.7728V24.7024C17.3227 24.7084 17.3231 24.7143 17.3235 24.7202C17.3238 24.7248 17.3241 24.7293 17.3243 24.7339H12.9603V15.8858C12.9603 10.4348 17.3268 6 22.6939 6H46.3058C51.673 6 56.0396 10.4348 56.0396 15.8858V24.7339H51.6756C51.6758 24.7267 51.6765 24.7196 51.6769 24.7123C51.677 24.709 51.6772 24.7056 51.6772 24.7022V23.7727C51.6772 19.4066 48.1799 15.8545 43.8811 15.8545H25.1192C20.8201 15.8545 17.3227 19.4067 17.3227 23.7728ZM9.07423 27.5574H59.9256C62.1722 27.5574 64 29.4137 64 31.6953V52.406C64 54.6876 62.1723 56.5439 59.9256 56.5439H58.0669L59.6624 61.1164C59.9188 61.8512 59.5401 62.6582 58.8165 62.9185C58.6674 62.9724 58.5105 62.9999 58.3523 63C57.7801 63 57.2442 62.6385 57.0421 62.0594L55.1178 56.5439H13.8827L11.9584 62.0594C11.7565 62.6384 11.2205 63 10.6484 63C10.4944 63 10.3377 62.9738 10.1842 62.9185C9.46069 62.6582 9.08184 61.8514 9.33829 61.1164L10.9335 56.5441H9.07423C6.8277 56.5441 5 54.6878 5 52.4061V31.6953C5 29.4137 6.82757 27.5574 9.07423 27.5574ZM25.0534 19H43.947C46.7326 19 48.9986 21.2644 48.9983 24.0477V24.9686C48.9983 24.9755 48.9989 24.9822 48.9994 24.9889C48.9997 24.9926 48.9999 24.9963 49 25H20C20.0001 24.9954 20.0004 24.9908 20.0008 24.9862C20.0012 24.9804 20.0016 24.9746 20.0016 24.9687V24.0478C20.0016 21.2644 22.2678 19 25.0534 19Z" fill="#02C6C8"/>
<path d="M17.3235 24.7202L15.3283 24.859L15.3284 24.8594L17.3235 24.7202ZM17.3243 24.7339V26.7339H19.3755L19.3236 24.6833L17.3243 24.7339ZM12.9603 24.7339H10.9603V26.7339H12.9603V24.7339ZM56.0396 24.7339V26.7339H58.0396V24.7339H56.0396ZM51.6756 24.7339L49.6762 24.6841L49.6251 26.7339H51.6756V24.7339ZM51.6769 24.7123L53.6737 24.8249L53.6737 24.824L51.6769 24.7123ZM58.0669 56.5439V54.5439H55.2508L56.1785 57.2028L58.0669 56.5439ZM59.6624 61.1164L57.774 61.7753L57.7741 61.7755L59.6624 61.1164ZM58.8165 62.9185L58.1394 61.0366L58.1368 61.0376L58.8165 62.9185ZM58.3523 63V65H58.3531L58.3523 63ZM57.0421 62.0594L55.1537 62.7182L55.1538 62.7183L57.0421 62.0594ZM55.1178 56.5439L57.0062 55.8851L56.5383 54.5439H55.1178V56.5439ZM13.8827 56.5439V54.5439H12.4623L11.9944 55.8851L13.8827 56.5439ZM11.9584 62.0594L10.0701 61.4006L10.07 61.4007L11.9584 62.0594ZM10.1842 62.9185L10.8615 61.0367L10.8613 61.0367L10.1842 62.9185ZM9.33829 61.1164L11.2266 61.7754L11.2267 61.7753L9.33829 61.1164ZM10.9335 56.5441L12.8219 57.2029L13.7495 54.5441H10.9335V56.5441ZM48.9983 24.0477L46.9983 24.0475V24.0477H48.9983ZM48.9994 24.9889L50.9939 24.841L50.9938 24.8398L48.9994 24.9889ZM49 25V27H51.052L50.9993 24.9487L49 25ZM20 25L18.0006 24.9492L17.9485 27H20V25ZM20.0008 24.9862L18.0058 24.845L18.0057 24.8451L20.0008 24.9862ZM19.3227 24.7024V23.7728H15.3227V24.7024H19.3227ZM19.3187 24.5813C19.3183 24.5756 19.3194 24.5902 19.3203 24.6077C19.3213 24.6274 19.3227 24.6607 19.3227 24.7024H15.3227C15.3227 24.7501 15.3243 24.7894 15.3256 24.8149C15.3269 24.8384 15.3283 24.8589 15.3283 24.859L19.3187 24.5813ZM19.3236 24.6833C19.3228 24.6522 19.3215 24.6267 19.3205 24.6102C19.3197 24.595 19.3187 24.5817 19.3187 24.581L15.3284 24.8594C15.3286 24.8633 15.328 24.8546 15.3274 24.8439C15.3267 24.832 15.3256 24.811 15.3249 24.7845L19.3236 24.6833ZM12.9603 26.7339H17.3243V22.7339H12.9603V26.7339ZM10.9603 15.8858V24.7339H14.9603V15.8858H10.9603ZM22.6939 4C16.193 4 10.9603 9.35955 10.9603 15.8858H14.9603C14.9603 11.5099 18.4605 8 22.6939 8V4ZM46.3058 4H22.6939V8H46.3058V4ZM58.0396 15.8858C58.0396 9.35952 52.8067 4 46.3058 4V8C50.5393 8 54.0396 11.51 54.0396 15.8858H58.0396ZM58.0396 24.7339V15.8858H54.0396V24.7339H58.0396ZM51.6756 26.7339H56.0396V22.7339H51.6756V26.7339ZM49.68 24.5997C49.6806 24.5899 49.6811 24.5827 49.6812 24.5815C49.6812 24.5811 49.6812 24.5804 49.6811 24.5822C49.681 24.5833 49.6808 24.5861 49.6806 24.5894C49.6799 24.6007 49.6774 24.6377 49.6762 24.6841L53.675 24.7837C53.6745 24.8044 53.6737 24.8215 53.6731 24.8334C53.6725 24.8451 53.6719 24.8539 53.6717 24.8569C53.6716 24.8584 53.6715 24.8594 53.6715 24.8587C53.6716 24.8586 53.6717 24.8562 53.6719 24.854C53.6722 24.8492 53.6729 24.8383 53.6737 24.8249L49.68 24.5997ZM49.6772 24.7022C49.6772 24.6559 49.6789 24.6195 49.68 24.6007L53.6737 24.824C53.6752 24.7985 53.6772 24.7554 53.6772 24.7022H49.6772ZM49.6772 23.7727V24.7022H53.6772V23.7727H49.6772ZM43.8811 17.8545C47.0462 17.8545 49.6772 20.4818 49.6772 23.7727H53.6772C53.6772 18.3314 49.3137 13.8545 43.8811 13.8545V17.8545ZM25.1192 17.8545H43.8811V13.8545H25.1192V17.8545ZM19.3227 23.7728C19.3227 20.4819 21.9538 17.8545 25.1192 17.8545V13.8545C19.6863 13.8545 15.3227 18.3315 15.3227 23.7728H19.3227ZM59.9256 25.5574H9.07423V29.5574H59.9256V25.5574ZM66 31.6953C66 28.3384 63.3058 25.5574 59.9256 25.5574V29.5574C61.0385 29.5574 62 30.489 62 31.6953H66ZM66 52.406V31.6953H62V52.406H66ZM59.9256 58.5439C63.306 58.5439 66 55.7629 66 52.406H62C62 53.6124 61.0386 54.5439 59.9256 54.5439V58.5439ZM58.0669 58.5439H59.9256V54.5439H58.0669V58.5439ZM61.5507 60.4575L59.9552 55.885L56.1785 57.2028L57.774 61.7753L61.5507 60.4575ZM59.4935 64.8005C61.2706 64.1612 62.1612 62.2068 61.5507 60.4574L57.7741 61.7755C57.6764 61.4957 57.8096 61.1553 58.1394 61.0366L59.4935 64.8005ZM58.3531 65C58.7431 64.9998 59.1298 64.9319 59.4961 64.7995L58.1368 61.0376C58.2051 61.0129 58.2778 61 58.3515 61L58.3531 65ZM55.1538 62.7183C55.6396 64.1106 56.9403 65 58.3523 65V61C58.62 61 58.8488 61.1664 58.9304 61.4005L55.1538 62.7183ZM53.2294 57.2027L55.1537 62.7182L58.9305 61.4006L57.0062 55.8851L53.2294 57.2027ZM13.8827 58.5439H55.1178V54.5439H13.8827V58.5439ZM13.8468 62.7182L15.7711 57.2027L11.9944 55.8851L10.0701 61.4006L13.8468 62.7182ZM10.6484 65C12.0605 65 13.3613 64.1103 13.8469 62.7181L10.07 61.4007C10.1517 61.1665 10.3805 61 10.6484 61V65ZM9.50688 64.8004C9.88021 64.9347 10.2663 65 10.6484 65V61C10.7225 61 10.7951 61.0128 10.8615 61.0367L9.50688 64.8004ZM7.44996 60.4575C6.83942 62.2072 7.73045 64.1612 9.50706 64.8004L10.8613 61.0367C11.1909 61.1553 11.3243 61.4956 11.2266 61.7754L7.44996 60.4575ZM9.04515 55.8852L7.44992 60.4576L11.2267 61.7753L12.8219 57.2029L9.04515 55.8852ZM9.07423 58.5441H10.9335V54.5441H9.07423V58.5441ZM3 52.4061C3 55.763 5.69399 58.5441 9.07423 58.5441V54.5441C7.96142 54.5441 7 53.6126 7 52.4061H3ZM3 31.6953V52.4061H7V31.6953H3ZM9.07423 25.5574C5.69382 25.5574 3 28.3385 3 31.6953H7C7 30.4888 7.96133 29.5574 9.07423 29.5574V25.5574ZM43.947 17H25.0534V21H43.947V17ZM50.9983 24.0479C50.9987 20.1584 47.8357 17 43.947 17V21C45.6294 21 46.9984 22.3704 46.9983 24.0475L50.9983 24.0479ZM50.9983 24.9686V24.0477H46.9983V24.9686H50.9983ZM50.9938 24.8398C50.9936 24.8368 50.9934 24.8342 50.9933 24.8333C50.9932 24.832 50.9933 24.8327 50.9933 24.8335C50.9935 24.8352 50.994 24.8429 50.9947 24.8532C50.996 24.8736 50.9983 24.9153 50.9983 24.9686H46.9983C46.9983 25.0288 47.0009 25.0773 47.0026 25.1044C47.0035 25.1181 47.0043 25.1292 47.0047 25.1343C47.0049 25.1367 47.005 25.1391 47.0051 25.1394C47.0051 25.1402 47.0051 25.1393 47.005 25.138L50.9938 24.8398ZM50.9993 24.9487C50.998 24.8949 50.9947 24.8519 50.9939 24.841L47.0049 25.1368C47.0047 25.1339 47.0039 25.1237 47.0031 25.1101C47.0023 25.0962 47.0013 25.0759 47.0007 25.0513L50.9993 24.9487ZM20 27H49V23H20V27ZM18.0057 24.8451C18.0057 24.8456 18.0047 24.8592 18.0038 24.8747C18.0028 24.8915 18.0014 24.9175 18.0006 24.9492L21.9994 25.0508C21.9987 25.0779 21.9975 25.0993 21.9968 25.1115C21.9962 25.1224 21.9955 25.1314 21.9958 25.1273L18.0057 24.8451ZM18.0016 24.9687C18.0016 24.926 18.0031 24.892 18.0041 24.872C18.0051 24.8541 18.0062 24.8393 18.0058 24.845L21.9958 25.1274C21.9958 25.1273 21.9973 25.1067 21.9985 25.083C21.9999 25.0573 22.0016 25.0173 22.0016 24.9687H18.0016ZM18.0016 24.0478V24.9687H22.0016V24.0478H18.0016ZM25.0534 17C21.1648 17 18.0016 20.1583 18.0016 24.0478H22.0016C22.0016 22.3705 23.3709 21 25.0534 21V17Z" fill="white" mask="url(#path-1-outside-1_478_3610)"/>
</svg>
