<svg width="69" height="69" viewBox="0 0 69 69" fill="none" xmlns="http://www.w3.org/2000/svg">
<path d="M45.0671 36.5185H39.0671L39.0672 26.5574L39.0671 26.5491L39.0669 26.5183L39.0668 26.5108C39.06 26.0813 38.9597 25.658 38.7725 25.2714C38.5852 24.8846 38.3153 24.5435 37.9811 24.2732L29.3328 17.278V15.8518H37.9213C39.294 15.8518 40.3796 14.7255 40.3796 13.37V8.48184C40.3796 7.12626 39.294 6 37.9213 6L26.9843 6C26.9842 6 26.9842 6 26.9841 6C26.984 6 26.9839 6 26.9838 6C26.8962 5.99998 26.8086 6.00466 26.7216 6.01403C26.6278 6.00474 26.5328 6 26.4369 6C24.8228 6 23.5411 7.32484 23.5411 8.92593L23.541 17.3067L14.8337 24.2621L14.8336 24.2621L14.8268 24.2676L14.8029 24.287L14.8029 24.287L14.7973 24.2916C14.4636 24.5672 14.1957 24.9138 14.0122 25.3056C13.8287 25.6973 13.7338 26.1249 13.7338 26.5574L13.7337 36.5185L6.85881 36.5185C3.95584 36.5185 1.62964 38.9053 1.62964 41.8159V56.6286C1.62964 59.5391 3.95583 61.9259 6.85881 61.9259H20.711H21.711V60.9259V50.6877C21.711 48.0325 23.8251 45.9075 26.3995 45.9075C28.9738 45.9075 31.088 48.0325 31.088 50.6877V60.9259V61.9259H32.088H45.0671C47.9701 61.9259 50.2963 59.5391 50.2963 56.6286V41.8158C50.2963 38.9053 47.9701 36.5185 45.0671 36.5185ZM22.4421 31C22.4421 28.7555 24.2291 26.963 26.4005 26.963C28.5718 26.963 30.3588 28.7555 30.3588 31C30.3588 33.2445 28.5718 35.037 26.4005 35.037C24.2291 35.037 22.4421 33.2445 22.4421 31Z" fill="#D76CE9" stroke="white" stroke-width="2"/>
<circle cx="50.5" cy="44.5" r="17.5" fill="#D76CE9" stroke="white" stroke-width="2"/>
<path d="M51.224 38.072C51.24 37.192 51.248 36.376 51.248 35.624C51.264 34.856 51.272 34.136 51.272 33.464H53.936L53.792 38.072H59.816C59.8 39.336 59.776 40.608 59.744 41.888C59.728 43.168 59.696 44.4 59.648 45.584C59.616 46.752 59.576 47.84 59.528 48.848C59.48 49.84 59.432 50.688 59.384 51.392C59.336 52.016 59.24 52.552 59.096 53C58.968 53.464 58.768 53.848 58.496 54.152C58.224 54.472 57.872 54.72 57.44 54.896C57.024 55.072 56.504 55.192 55.88 55.256C55.688 55.272 55.464 55.288 55.208 55.304C54.968 55.32 54.72 55.328 54.464 55.328C54.208 55.344 53.952 55.352 53.696 55.352C53.456 55.368 53.256 55.376 53.096 55.376L52.568 52.52C52.728 52.536 52.904 52.552 53.096 52.568C53.304 52.584 53.512 52.592 53.72 52.592C53.928 52.592 54.12 52.592 54.296 52.592C54.488 52.592 54.648 52.592 54.776 52.592C55.208 52.576 55.552 52.552 55.808 52.52C56.064 52.472 56.256 52.376 56.384 52.232C56.528 52.072 56.624 51.848 56.672 51.56C56.736 51.272 56.784 50.872 56.816 50.36C56.864 49.704 56.904 48.992 56.936 48.224C56.984 47.456 57.016 46.656 57.032 45.824C57.064 44.992 57.088 44.144 57.104 43.28C57.12 42.4 57.128 41.528 57.128 40.664H53.72C53.528 44.664 53.136 47.632 52.544 49.568C52.224 50.592 51.744 51.64 51.104 52.712C50.464 53.784 49.608 54.936 48.536 56.168L46.328 54.704C46.728 54.288 47.096 53.872 47.432 53.456C47.768 53.056 48.08 52.664 48.368 52.28L47.624 52.568C47.608 52.488 47.592 52.416 47.576 52.352C47.576 52.288 47.56 52.216 47.528 52.136C46.216 52.312 44.904 52.472 43.592 52.616C42.28 52.76 40.968 52.888 39.656 53L39.128 50.192C39.368 50.16 39.584 50.056 39.776 49.88C39.984 49.688 40.224 49.408 40.496 49.04C40.816 48.64 41.248 48.008 41.792 47.144C42.336 46.28 42.992 45.168 43.76 43.808L43.832 43.688C43.624 43.72 43.408 43.744 43.184 43.76C42.976 43.76 42.76 43.768 42.536 43.784C41.864 43.832 41.272 43.872 40.76 43.904C40.248 43.92 39.792 43.936 39.392 43.952L38.912 41.384C39.088 41.384 39.272 41.32 39.464 41.192C39.656 41.064 39.888 40.784 40.16 40.352C40.288 40.096 40.48 39.728 40.736 39.248C41.008 38.768 41.336 38.144 41.72 37.376C42.472 35.888 43.072 34.552 43.52 33.368L46.016 34.304C45.76 34.864 45.48 35.456 45.176 36.08C44.872 36.704 44.536 37.376 44.168 38.096C43.432 39.536 42.848 40.6 42.416 41.288C42.928 41.272 43.416 41.248 43.88 41.216C44.36 41.184 44.824 41.144 45.272 41.096C45.672 40.376 46.024 39.72 46.328 39.128C46.648 38.52 46.92 37.96 47.144 37.448L49.232 38.48V38.072H51.224ZM50.264 48.776C50.728 47.224 51.024 44.52 51.152 40.664H49.232V38.984C48.864 39.768 48.432 40.608 47.936 41.504C47.456 42.4 46.912 43.368 46.304 44.408L45.632 45.56L47.624 44.768C48.024 45.616 48.448 46.76 48.896 48.2C49.024 48.616 49.144 49.008 49.256 49.376C49.384 49.744 49.488 50.088 49.568 50.408C49.728 50.12 49.864 49.848 49.976 49.592C50.088 49.32 50.184 49.048 50.264 48.776ZM45.92 49.736C46.08 49.72 46.232 49.704 46.376 49.688C46.52 49.672 46.664 49.648 46.808 49.616L46.64 49.064C46.208 47.72 45.816 46.64 45.464 45.824C44.472 47.472 43.552 48.872 42.704 50.024C43.744 49.976 44.816 49.88 45.92 49.736Z" fill="white"/>
</svg>
