<svg width="69" height="69" viewBox="0 0 69 69" fill="none" xmlns="http://www.w3.org/2000/svg">
<path d="M56.4362 44.9845L58.8402 43.1841H55.8367H19.6201C19.0068 43.1841 18.4069 43.3516 17.8313 43.639C17.2288 43.9398 16.6913 44.3777 16.213 44.9234C15.7208 45.4851 15.3332 46.1402 15.0429 46.8761C14.7363 47.6533 14.5938 48.5094 14.5938 49.4281C14.5938 50.3317 14.7124 51.1889 14.9585 51.9932C15.1959 52.769 15.5142 53.4761 15.9201 54.1064C16.3439 54.7648 16.8765 55.3029 17.5211 55.699C18.1814 56.1048 18.9068 56.3132 19.6785 56.3132H55.8367H58.2534L56.5433 54.6055C56.1361 54.1989 55.7778 53.7396 55.4685 53.2249L55.4686 53.2249L55.4627 53.2153C55.1951 52.7811 54.9408 52.2438 54.7056 51.5936C54.4992 51.0229 54.3859 50.3449 54.3859 49.5447C54.3859 48.6089 54.5044 47.9053 54.6991 47.3968C54.929 46.7963 55.1716 46.3385 55.4154 46.0023C55.7076 45.6144 56.0472 45.2758 56.4362 44.9845ZM59.1332 9.97011L58.3171 10.5283L59.1332 9.97011C58.5029 9.04858 57.7055 8.31778 56.7452 7.79268C55.758 7.25283 54.6345 7 53.4062 7H51.3638H47.2792H41.7941C39.8068 7 37.7711 7.00973 35.6869 7.02918C33.6086 7.04857 31.5791 7.05827 29.5984 7.05827H24.1716H20.2037H18.2197C15.125 7.05827 12.5868 7.7588 10.7491 9.30288C8.84286 10.9046 8 13.412 8 16.5653V50.3604C8 51.9264 8.12061 53.403 8.36537 54.788C8.61541 56.2028 9.04915 57.4578 9.68609 58.5325C10.3289 59.617 11.1723 60.4866 12.2152 61.1204C13.3027 61.7814 14.6025 62.0816 16.0606 62.0816H58.7162C59.2449 62.0816 59.825 61.9845 60.29 61.6257C60.8041 61.229 61 60.6548 61 60.0911C61 59.4714 60.7834 58.8343 60.1894 58.4236C59.7672 58.1318 59.2863 57.984 58.7746 57.984H18.9199C18.3408 57.984 17.7198 57.8193 17.0453 57.4415C16.3736 57.0652 15.7385 56.5223 15.1452 55.7905L14.3684 56.4202L15.1452 55.7905C14.5701 55.081 14.0867 54.1888 13.7091 53.0935C13.3426 52.0304 13.151 50.8126 13.151 49.4281C13.151 48.3338 13.3274 47.2905 13.678 46.2927C14.0377 45.2691 14.4986 44.3901 15.0535 43.6454C15.6116 42.8966 16.2228 42.3264 16.8818 41.9151C17.5211 41.5162 18.1374 41.3384 18.7449 41.3384H20.9039C22.1831 41.3384 23.8037 41.3481 25.7664 41.3675C27.735 41.387 29.9655 41.3967 32.4577 41.3967H39.9238C45.8775 41.4355 52.5696 41.455 60 41.455H61V40.455V16.8567C61 15.5351 60.8448 14.2819 60.5282 13.1015C60.212 11.9227 59.7512 10.8737 59.1332 9.97011Z" fill="#BECB2C" stroke="white" stroke-width="2"/>
<path d="M37.1021 30.898V8H45.949V30.898L41.7857 24.6531L37.1021 30.898Z" fill="white"/>
</svg>
