<svg width="69" height="69" viewBox="0 0 69 69" fill="none" xmlns="http://www.w3.org/2000/svg">
<rect x="26.0586" y="14.0884" width="8.64706" height="31.7059" fill="white"/>
<path d="M27.4239 5.46728L27.4239 5.46725C29.4117 2.1776 34.2302 2.17758 36.218 5.4672L27.4239 5.46728ZM27.4239 5.46728L2.73226 46.3328C2.73223 46.3328 2.73219 46.3329 2.73216 46.3329C0.678316 49.7309 3.17522 54 7.12923 54H56.5178C60.4719 54 62.9688 49.7309 60.9149 46.3328C60.9148 46.3328 60.9148 46.3328 60.9148 46.3328L36.218 5.46725L27.4239 5.46728ZM32.8824 43.8333H30.7647V41.7499H32.8824V43.8333ZM32.8824 35.6665H30.7647V17.2496H32.8824V35.6665Z" fill="#F07C4A" stroke="white" stroke-width="2"/>
<circle cx="50.5" cy="49.5" r="17.5" fill="#F07C4A" stroke="white" stroke-width="2"/>
<path d="M59.136 38.344L61.272 40.528C57.864 41.608 53.232 42.352 49.224 42.76C49.104 42.112 48.72 41.08 48.432 40.48C52.272 40.048 56.544 39.256 59.136 38.344ZM47.664 39.736L50.472 40.648V54.136H47.664V39.736ZM46.128 53.584C48.384 53.32 51.648 52.864 54.792 52.36L54.936 54.952C52.08 55.408 49.032 55.888 46.68 56.248L46.128 53.584ZM49.368 45.736H62.232V48.328H49.368V45.736ZM54.144 41.056H57.048C56.976 48.688 58.512 56.56 59.88 56.56C60.24 56.56 60.432 55.528 60.504 53.296C61.104 53.92 62.04 54.52 62.736 54.808C62.376 58.528 61.488 59.368 59.592 59.368C55.776 59.368 54.312 50.032 54.144 41.056ZM46.968 57.16H56.616V59.68H46.968V57.16ZM44.688 37.72L47.4 38.56C45.84 42.664 43.344 46.984 40.728 49.72C40.464 49.024 39.696 47.44 39.192 46.744C41.376 44.56 43.464 41.152 44.688 37.72ZM42.36 44.344L45.096 41.608L45.12 41.632V60.136H42.36V44.344Z" fill="white"/>
</svg>
