<svg width="69" height="69" viewBox="0 0 69 69" fill="none" xmlns="http://www.w3.org/2000/svg">
<rect x="26.0586" y="14.0884" width="8.64706" height="31.7059" fill="white"/>
<path d="M27.4239 5.46728L27.4239 5.46725C29.4117 2.1776 34.2302 2.17758 36.218 5.4672L27.4239 5.46728ZM27.4239 5.46728L2.73226 46.3328C2.73223 46.3328 2.73219 46.3329 2.73216 46.3329C0.678316 49.7309 3.17522 54 7.12923 54H56.5178C60.4719 54 62.9688 49.7309 60.9149 46.3328C60.9148 46.3328 60.9148 46.3328 60.9148 46.3328L36.218 5.46725L27.4239 5.46728ZM32.8824 43.8333H30.7647V41.7499H32.8824V43.8333ZM32.8824 35.6665H30.7647V17.2496H32.8824V35.6665Z" fill="#DD5D27" stroke="white" stroke-width="2"/>
<circle cx="50.5" cy="49.5" r="17.5" fill="#DD5D27" stroke="white" stroke-width="2"/>
<path d="M41.088 41.8H60.936V53.848H57.912V44.632H43.992V53.968H41.088V41.8ZM42.6 49.792H59.592V52.624H42.6V49.792ZM49.416 37.624H52.464V60.16H49.416V37.624Z" fill="white"/>
</svg>
