<svg width="69" height="69" viewBox="0 0 69 69" fill="none" xmlns="http://www.w3.org/2000/svg">
<path d="M45.0671 36.5185H39.0671L39.0672 26.5574L39.0671 26.5491L39.0669 26.5183L39.0668 26.5108C39.06 26.0813 38.9597 25.658 38.7725 25.2714C38.5852 24.8846 38.3153 24.5435 37.9811 24.2732L29.3328 17.278V15.8518H37.9213C39.294 15.8518 40.3796 14.7255 40.3796 13.37V8.48184C40.3796 7.12626 39.294 6 37.9213 6L26.9843 6C26.9842 6 26.9842 6 26.9841 6C26.984 6 26.9839 6 26.9838 6C26.8962 5.99998 26.8086 6.00466 26.7216 6.01403C26.6278 6.00474 26.5328 6 26.4369 6C24.8228 6 23.5411 7.32484 23.5411 8.92593L23.541 17.3067L14.8337 24.2621L14.8336 24.2621L14.8268 24.2676L14.8029 24.287L14.8029 24.287L14.7973 24.2916C14.4636 24.5672 14.1957 24.9138 14.0122 25.3056C13.8287 25.6973 13.7338 26.1249 13.7338 26.5574L13.7337 36.5185L6.85881 36.5185C3.95584 36.5185 1.62964 38.9053 1.62964 41.8159V56.6286C1.62964 59.5391 3.95583 61.9259 6.85881 61.9259H20.711H21.711V60.9259V50.6877C21.711 48.0325 23.8251 45.9075 26.3995 45.9075C28.9738 45.9075 31.088 48.0325 31.088 50.6877V60.9259V61.9259H32.088H45.0671C47.9701 61.9259 50.2963 59.5391 50.2963 56.6286V41.8158C50.2963 38.9053 47.9701 36.5185 45.0671 36.5185ZM22.4421 31C22.4421 28.7555 24.2291 26.963 26.4005 26.963C28.5718 26.963 30.3588 28.7555 30.3588 31C30.3588 33.2445 28.5718 35.037 26.4005 35.037C24.2291 35.037 22.4421 33.2445 22.4421 31Z" fill="#834EF5" stroke="white" stroke-width="2"/>
<circle cx="50.5" cy="44.5" r="17.5" fill="#834EF5" stroke="white" stroke-width="2"/>
<path d="M47.912 33.472H58.88V36.184H47.912V33.472ZM57.848 33.472H60.8C60.8 33.472 60.8 34.552 60.776 34.936C60.536 46.984 60.296 51.208 59.384 52.504C58.76 53.464 58.136 53.776 57.248 53.968C56.36 54.136 55.04 54.112 53.744 54.064C53.696 53.248 53.336 51.952 52.832 51.088C54.104 51.208 55.208 51.208 55.784 51.208C56.192 51.208 56.432 51.088 56.696 50.728C57.416 49.888 57.656 45.52 57.848 34.168V33.472ZM51.416 34.72H54.368C54.2 42.16 53.864 49.816 48.104 54.184C47.6 53.416 46.712 52.456 45.944 51.928C51.296 48.16 51.296 41.344 51.416 34.72ZM42.2 44.008L45.032 40.624V54.16H42.2V44.008ZM39.08 35.896H46.256V38.464H39.08V35.896ZM42.2 31.648H45.032V37.288H42.2V31.648ZM44.744 42.184C45.536 42.808 48.152 45.304 48.776 45.928L47.072 48.136C46.208 46.864 44.24 44.536 43.232 43.504L44.744 42.184ZM45.464 35.896H46.016L46.52 35.752L48.128 36.832C46.4 41.464 43.04 45.976 39.896 48.448C39.632 47.728 38.864 46.312 38.408 45.808C41.312 43.792 44.24 39.928 45.464 36.448V35.896ZM47.552 40.456L49.4 41.992C48.368 42.952 47.504 44.056 46.76 44.752L45.44 43.6C46.112 42.784 47.072 41.392 47.552 40.456Z" fill="white"/>
</svg>
