<svg width="69" height="69" viewBox="0 0 69 69" fill="none" xmlns="http://www.w3.org/2000/svg">
<path d="M8.35528 27.7205L8 28.0201V28.4849V61.25V62.25H9H39.3324H40.3324V61.25V16.5758V15.674L39.4354 15.5812C29.4381 14.5464 19.0636 18.6888 8.35528 27.7205ZM62 18.061V17.9033L61.9514 17.7532C60.4542 13.1253 58.048 9.67885 54.6738 7.53807C51.3032 5.39965 47.0888 4.64156 42.1199 5.15444L41.2225 5.24705V6.14915V61.2472V62.2472H42.2225H61H62V61.2472V18.061Z" fill="white"/>
<path d="M8.35528 27.7205L8 28.0201V28.4849V61.25V62.25H9H39.3324H40.3324V61.25V16.5758V15.674L39.4354 15.5812C29.4381 14.5464 19.0636 18.6888 8.35528 27.7205ZM62 18.061V17.9033L61.9514 17.7532C60.4542 13.1253 58.048 9.67885 54.6738 7.53807C51.3032 5.39965 47.0888 4.64156 42.1199 5.15444L41.2225 5.24705V6.14915V61.2472V62.2472H42.2225H61H62V61.2472V18.061Z" fill="#02C88D"/>
<path d="M8.35528 27.7205L8 28.0201V28.4849V61.25V62.25H9H39.3324H40.3324V61.25V16.5758V15.674L39.4354 15.5812C29.4381 14.5464 19.0636 18.6888 8.35528 27.7205ZM62 18.061V17.9033L61.9514 17.7532C60.4542 13.1253 58.048 9.67885 54.6738 7.53807C51.3032 5.39965 47.0888 4.64156 42.1199 5.15444L41.2225 5.24705V6.14915V61.2472V62.2472H42.2225H61H62V61.2472V18.061Z" stroke="white" stroke-width="2"/>
<path d="M20.5549 40.25V29.8262H27.7802V40.25H20.5549Z" fill="white"/>
<path d="M20.5549 55.1405V44.7166H27.7802V55.1405H20.5549Z" fill="white"/>
</svg>
