<svg width="69" height="69" viewBox="0 0 69 69" fill="none" xmlns="http://www.w3.org/2000/svg">
<path d="M51.7739 42.5098C51.0955 42.7353 50.4171 42.7353 49.7387 42.7353C46.799 42.7353 44.0854 40.9314 42.9548 38C41.8241 40.7059 39.1106 42.7353 36.1709 42.7353C33.2312 42.7353 30.5176 40.9314 29.3869 38C28.2563 40.7059 25.5427 42.7353 22.603 42.7353C19.6633 42.7353 16.9497 40.9314 15.8191 38C14.6884 40.7059 11.9749 42.7353 9.03518 42.7353C8.35678 42.7353 7.67839 42.7353 7 42.5098V57.8431C7 59.1961 8.58291 61 9.9397 61H49.0603C50.4171 61 52 59.1961 52 57.8431V42.5098H51.7739Z" fill="#DFC158" stroke="white" stroke-width="2"/>
<path d="M57 30.7617L52.1875 18.1234H6.8125L2 30.7617C2 34.6681 4.97917 37.6553 8.875 37.6553C12.7708 37.6553 15.75 34.6681 15.75 30.7617C15.75 33.2894 17.125 35.5872 19.1875 36.7362C21.25 37.8851 24 37.8851 26.0625 36.7362C28.125 35.5872 29.5 33.2894 29.5 30.7617C29.5 33.2894 30.6458 35.5872 32.9375 36.966C35 38.3447 37.75 38.3447 39.8125 36.966C41.875 35.817 43.0208 33.5191 43.25 31.2213C43.25 33.5191 44.625 35.817 46.6875 36.966C48.75 38.3447 51.5 38.3447 53.7917 36.966C55.8542 35.5872 57 33.2894 57 30.7617ZM47.8333 15.5957H11.1667C9.79167 15.5957 8.875 14.6766 8.875 13.2979C8.875 12.1489 9.79167 11 11.1667 11H47.8333C48.9792 11 50.125 11.9191 50.125 13.2979C50.125 14.6766 49.2083 15.5957 47.8333 15.5957Z" fill="#DFC158"/>
<path d="M43.25 31.2213C43.0208 33.5191 41.875 35.817 39.8125 36.966C37.75 38.3447 35 38.3447 32.9375 36.966C30.6458 35.5872 29.5 33.2894 29.5 30.7617C29.5 33.2894 28.125 35.5872 26.0625 36.7362C24 37.8851 21.25 37.8851 19.1875 36.7362C17.125 35.5872 15.75 33.2894 15.75 30.7617C15.75 34.6681 12.7708 37.6553 8.875 37.6553C4.97917 37.6553 2 34.6681 2 30.7617L6.8125 18.1234H52.1875L57 30.7617C57 33.2894 55.8542 35.5872 53.7917 36.966C51.5 38.3447 48.75 38.3447 46.6875 36.966C44.625 35.817 43.25 33.5191 43.25 31.2213ZM43.25 31.2213V30.7617M47.8333 15.5957H11.1667C9.79167 15.5957 8.875 14.6766 8.875 13.2979C8.875 12.1489 9.79167 11 11.1667 11H47.8333C48.9792 11 50.125 11.9191 50.125 13.2979C50.125 14.6766 49.2083 15.5957 47.8333 15.5957Z" stroke="white" stroke-width="2"/>
<circle cx="50.4995" cy="43.5" r="17.5" fill="#DFC158" stroke="white" stroke-width="2"/>
<path d="M42.0475 32.416H59.8555V34.456H42.0475V32.416ZM43.7515 37.864H48.7435V39.424H43.7515V37.864ZM46.5835 44.872H55.4395V46.744H46.5835V44.872ZM42.5515 47.68H57.2395V49.6H42.5515V47.68ZM43.2235 40.288H48.7675V41.92H43.2235V40.288ZM53.0875 40.288H58.7035V41.92H53.0875V40.288ZM53.0875 37.864H58.1275V39.424H53.0875V37.864ZM49.5115 33.28H52.3195V40.696H49.5115V33.28ZM48.0955 48.4H50.8795V54.16H48.0955V48.4ZM40.4155 35.272H61.6075V39.736H58.9435V37.072H42.9595V39.736H40.4155V35.272ZM50.9035 43.024C48.8395 44.992 44.7355 46.888 40.8715 47.848C40.6315 47.2 40.0795 46.192 39.6235 45.64C43.6315 44.8 47.4475 43 49.4875 40.984H52.0795C54.7915 43.384 58.7035 44.8 62.4235 45.376C61.8715 46.048 61.3435 47.032 61.0075 47.704C57.6235 46.96 53.1835 45.112 50.9035 43.024ZM55.8955 47.68H58.6795V50.584C58.6795 51.76 58.4635 52.36 57.5755 52.72C56.7115 53.08 55.6075 53.08 54.1195 53.08C53.9515 52.384 53.5195 51.472 53.1595 50.872C54.1195 50.92 55.1995 50.896 55.4875 50.896C55.7995 50.896 55.8955 50.824 55.8955 50.56V47.68Z" fill="white"/>
</svg>
