<svg width="69" height="69" viewBox="0 0 69 69" fill="none" xmlns="http://www.w3.org/2000/svg">
<path d="M45.0671 36.5185H39.0671L39.0672 26.5574L39.0671 26.5491L39.0669 26.5183L39.0668 26.5108C39.06 26.0813 38.9597 25.658 38.7725 25.2714C38.5852 24.8846 38.3153 24.5435 37.9811 24.2732L29.3328 17.278V15.8518H37.9213C39.294 15.8518 40.3796 14.7255 40.3796 13.37V8.48184C40.3796 7.12626 39.294 6 37.9213 6L26.9843 6C26.9842 6 26.9842 6 26.9841 6C26.984 6 26.9839 6 26.9838 6C26.8962 5.99998 26.8086 6.00466 26.7216 6.01403C26.6278 6.00474 26.5328 6 26.4369 6C24.8228 6 23.5411 7.32484 23.5411 8.92593L23.541 17.3067L14.8337 24.2621L14.8336 24.2621L14.8268 24.2676L14.8029 24.287L14.8029 24.287L14.7973 24.2916C14.4636 24.5672 14.1957 24.9138 14.0122 25.3056C13.8287 25.6973 13.7338 26.1249 13.7338 26.5574L13.7337 36.5185L6.85881 36.5185C3.95584 36.5185 1.62964 38.9053 1.62964 41.8159V56.6286C1.62964 59.5391 3.95583 61.9259 6.85881 61.9259H20.711H21.711V60.9259V50.6877C21.711 48.0325 23.8251 45.9075 26.3995 45.9075C28.9738 45.9075 31.088 48.0325 31.088 50.6877V60.9259V61.9259H32.088H45.0671C47.9701 61.9259 50.2963 59.5391 50.2963 56.6286V41.8158C50.2963 38.9053 47.9701 36.5185 45.0671 36.5185ZM22.4421 31C22.4421 28.7555 24.2291 26.963 26.4005 26.963C28.5718 26.963 30.3588 28.7555 30.3588 31C30.3588 33.2445 28.5718 35.037 26.4005 35.037C24.2291 35.037 22.4421 33.2445 22.4421 31Z" fill="#A844F6" stroke="white" stroke-width="2"/>
<circle cx="50.5" cy="44.5" r="17.5" fill="#A844F6" stroke="white" stroke-width="2"/>
<path d="M44.696 52.64C45.256 52.688 45.752 52.72 46.184 52.736C46.616 52.752 47.024 52.76 47.408 52.76C47.68 52.76 47.896 52.752 48.056 52.736C48.232 52.704 48.36 52.648 48.44 52.568C48.536 52.472 48.6 52.336 48.632 52.16C48.68 51.984 48.704 51.736 48.704 51.416V33.656H51.512V51.8C51.496 52.456 51.448 53 51.368 53.432C51.288 53.88 51.144 54.248 50.936 54.536C50.744 54.824 50.48 55.048 50.144 55.208C49.808 55.368 49.384 55.488 48.872 55.568C48.264 55.664 47.64 55.72 47 55.736C46.376 55.752 45.76 55.736 45.152 55.688L44.696 52.64ZM55.784 37.688C56.248 38.424 56.744 39.328 57.272 40.4C57.816 41.472 58.384 42.688 58.976 44.048C59.568 45.408 60.072 46.664 60.488 47.816C60.904 48.952 61.232 49.952 61.472 50.816L58.688 51.944C58.448 51.08 58.12 50.096 57.704 48.992C57.304 47.872 56.824 46.616 56.264 45.224C55.128 42.44 54.136 40.32 53.288 38.864L55.784 37.688ZM38.624 50.384C39.12 49.44 39.592 48.432 40.04 47.36C40.504 46.272 40.928 45.184 41.312 44.096C41.696 42.992 42.04 41.912 42.344 40.856C42.648 39.8 42.896 38.824 43.088 37.928L45.968 38.6C45.68 39.72 45.36 40.864 45.008 42.032C44.656 43.2 44.28 44.352 43.88 45.488C43.496 46.608 43.072 47.696 42.608 48.752C42.16 49.808 41.688 50.776 41.192 51.656L38.624 50.384Z" fill="white"/>
</svg>
